<?xml version="1.0" standalone="no"?><svg xmlns="http://www.w3.org/2000/svg" viewBox="0 0 1440 320"><path fill="#252b42" fill-opacity="1" d="M0,0L12.6,21.3C25.3,43,51,85,76,128C101.1,171,126,213,152,224C176.8,235,202,213,227,197.3C252.6,181,278,171,303,160C328.4,149,354,139,379,144C404.2,149,429,171,455,181.3C480,192,505,192,531,202.7C555.8,213,581,235,606,250.7C631.6,267,657,277,682,256C707.4,235,733,181,758,176C783.2,171,808,213,834,229.3C858.9,245,884,235,909,208C934.7,181,960,139,985,112C1010.5,85,1036,75,1061,106.7C1086.3,139,1112,213,1137,229.3C1162.1,245,1187,203,1213,165.3C1237.9,128,1263,96,1288,90.7C1313.7,85,1339,107,1364,122.7C1389.5,139,1415,149,1427,154.7L1440,160L1440,320L1427.4,320C1414.7,320,1389,320,1364,320C1338.9,320,1314,320,1288,320C1263.2,320,1238,320,1213,320C1187.4,320,1162,320,1137,320C1111.6,320,1086,320,1061,320C1035.8,320,1011,320,985,320C960,320,935,320,909,320C884.2,320,859,320,834,320C808.4,320,783,320,758,320C732.6,320,707,320,682,320C656.8,320,632,320,606,320C581.1,320,556,320,531,320C505.3,320,480,320,455,320C429.5,320,404,320,379,320C353.7,320,328,320,303,320C277.9,320,253,320,227,320C202.1,320,177,320,152,320C126.3,320,101,320,76,320C50.5,320,25,320,13,320L0,320Z"></path></svg>